<svg xmlns="http://www.w3.org/2000/svg" width="192" height="192" viewBox="0 0 192 192">
  <defs>
    <linearGradient id="g" x1="0" y1="0" x2="1" y2="1">
      <stop offset="0%" stop-color="#10b981"/>
      <stop offset="100%" stop-color="#047857"/>
    </linearGradient>
  </defs>
  <rect width="192" height="192" rx="0" fill="url(#g)"/>
  <g transform="translate(96 96) scale(0.8) translate(-96 -96)">
  <g fill="none" stroke="#ffffff" stroke-linecap="round">
    <!-- staff -->
    <rect x="91.8" y="56" width="8.4" height="102" rx="4.2" fill="#ffffff" stroke="none"/>
    <circle cx="96" cy="47" r="8" fill="#ffffff" stroke="none"/>
    <!-- wings -->
    <path d="M89 66 C76 52 54 50 42 58 C52 63 60 66 66 71 C57 71 48 73 41 78 C55 84 76 82 89 73 Z" fill="#ffffff" stroke="none"/>
    <path d="M103 66 C116 52 138 50 150 58 C140 63 132 66 126 71 C135 71 144 73 151 78 C137 84 116 82 103 73 Z" fill="#ffffff" stroke="none"/>
    <!-- snakes: two S-curves crossing the staff -->
    <path d="M67 84 C67 99 125 101 125 117 C125 133 67 135 67 151" stroke-width="8.5"/>
    <path d="M125 84 C125 99 67 101 67 117 C67 133 125 135 125 151" stroke-width="8.5"/>
    <!-- heads -->
    <circle cx="67" cy="82" r="6.2" fill="#ffffff" stroke="none"/>
    <circle cx="125" cy="82" r="6.2" fill="#ffffff" stroke="none"/>
  </g>
  </g>
</svg>
